# xmcd CD database file
#
# Track frame offsets:
#	150
#	16959
#	40152
#	55702
#	76790
#	96927
#	108736
#	121236
#	139533
#	151661
#	172446
#	185876
#	206049
#	220105
#	232039
#	250228
#	264434
#	280313
#	296850
#	309525
#	324996
#	340419
#
# Disc length: 4766 seconds
#
# Revision: 0
# Processed by: cddbd v1.5.1PL0 Copyright (c) Steve Scherf et al.
# Submitted via: CDex 1.51
#
DISCID=4a129c16
DTITLE=John Gill's Jazz Kings - I Must Have It
DYEAR=2004
DGENRE=Jazz
TTITLE0=I Never Knew What A Gal Could Do
TTITLE1=I Must Have It
TTITLE2=Sunset Cafe Stomp
TTITLE3=What Ya Want Me To Do?
TTITLE4=Room Rent Blues
TTITLE5=I'm Sorry I Made You Cry
TTITLE6=Lady Love
TTITLE7=The Nightmare
TTITLE8=Rhythm Club Stomp
TTITLE9=Buddy Bolden's Blues
TTITLE10=Spanish Mama
TTITLE11=That Sweet Something, Dear
TTITLE12=Jazzin' Babies Blues
TTITLE13=That's All Right
TTITLE14=Tack Annie
TTITLE15=Mississippi Rag
TTITLE16=Deep Henderson
TTITLE17=I Love My Baby (My Baby Loves Me)
TTITLE18=Zulus Ball
TTITLE19=Wa Wa Wa
TTITLE20=The Fives
TTITLE21=Come Back Sweet Papa
EXTD=YEAR: 2004
EXTT0=
EXTT1=
EXTT2=
EXTT3=
EXTT4=
EXTT5=
EXTT6=
EXTT7=
EXTT8=
EXTT9=
EXTT10=
EXTT11=
EXTT12=
EXTT13=
EXTT14=
EXTT15=
EXTT16=
EXTT17=
EXTT18=
EXTT19=
EXTT20=
EXTT21=
PLAYORDER=
